<svg width="24" height="24" viewBox="0 0 24 24" fill="none" xmlns="http://www.w3.org/2000/svg">
  <rect width="24" height="24" rx="4" fill="#00AEDD"/>
  <path d="M5 12.1429C5 9.85714 6.66667 8 8.75 8H15.25C17.3333 8 19 9.85714 19 12.1429C19 14.4286 17.3333 16.2857 15.25 16.2857H8.75C6.66667 16.2857 5 14.4286 5 12.1429Z" fill="white"/>
  <path d="M9 12.1429C9 11.5 9.4 11 10 11H14C14.6 11 15 11.5 15 12.1429C15 12.7857 14.6 13.2857 14 13.2857H10C9.4 13.2857 9 12.7857 9 12.1429Z" fill="#00AEDD"/>
</svg> 